#tb 0: 1/44100
#media_type 0: audio
#codec_id 0: pcm_s16le
#sample_rate 0: 44100
#channel_layout_name 0: stereo
0,          0,          0,     4096,    16384, 0x990adba7
0,       4096,       4096,     4096,    16384, 0xe8fbef2b
0,       8192,       8192,     4096,    16384, 0x1f11da2f
0,      12288,      12288,     4096,    16384, 0x5844e52d
0,      16384,      16384,     4096,    16384, 0x7739ef7b
0,      20480,      20480,     4096,    16384, 0xf6bef2b3
0,      24576,      24576,     4096,    16384, 0x1a34e98b
0,      28672,      28672,     4096,    16384, 0x46ede893
0,      32768,      32768,     4096,    16384, 0x9353de13
0,      36864,      36864,     4096,    16384, 0xe8fbef2b
0,      40960,      40960,     4096,    16384, 0x3206e5e1
0,      45056,      45056,     4096,    16384, 0x1162bfdd
0,      49152,      49152,     4096,    16384, 0xef9c0744
0,      53248,      53248,     4096,    16384, 0x72dff7bb
0,      57344,      57344,     4096,    16384, 0x8a3ba387
0,      61440,      61440,     4096,    16384, 0x41b29a55
0,      65536,      65536,     4096,    16384, 0x564ae7e9
0,      69632,      69632,     4096,    16384, 0x46632596
0,      73728,      73728,     4096,    16384, 0xe4d003f6
0,      77824,      77824,     4096,    16384, 0x0f8fd5bd
0,      81920,      81920,     4096,    16384, 0x57a6d1ff
0,      86016,      86016,     4096,    16384, 0x97050b2c
0,      90112,      90112,     4096,    16384, 0x5df3831d
0,      94208,      94208,     4096,    16384, 0xd74cc599
0,      98304,      98304,     4096,    16384, 0x691e1c4a
0,     102400,     102400,     4096,    16384, 0xc9829a91
0,     106496,     106496,     4096,    16384, 0xd723c44b
0,     110592,     110592,     4096,    16384, 0xf2f61906
0,     114688,     114688,     4096,    16384, 0x09452c84
0,     118784,     118784,     4096,    16384, 0x07330e2a
0,     122880,     122880,     4096,    16384, 0xb36f6f5c
0,     126976,     126976,     4096,    16384, 0x183d7150
0,     131072,     131072,     4096,    16384, 0xe201aee0
0,     135168,     135168,     4096,    16384, 0xa26fe7e9
0,     139264,     139264,     4096,    16384, 0xb18b0d75
0,     143360,     143360,     4096,    16384, 0x3ac0d9e6
0,     147456,     147456,     4096,    16384, 0x861407c9
0,     151552,     151552,     4096,    16384, 0x541bdc46
0,     155648,     155648,     4096,    16384, 0xa2ffba75
0,     159744,     159744,     4096,    16384, 0x8926bd30
0,     163840,     163840,     4096,    16384, 0xd57de0dc
0,     167936,     167936,     4096,    16384, 0x0351d5d4
0,     172032,     172032,     4096,    16384, 0x80e1e079
0,     176128,     176128,     4096,    16384, 0x8eaff53a
0,     180224,     180224,     4096,    16384, 0x6818a593
0,     184320,     184320,     4096,    16384, 0x172a9e58
0,     188416,     188416,     4096,    16384, 0x3d0af7a0
0,     192512,     192512,     4096,    16384, 0xa1cfee35
0,     196608,     196608,     4096,    16384, 0xcb6a24f3
0,     200704,     200704,     4096,    16384, 0x97369bae
0,     204800,     204800,     4096,    16384, 0x3457c4b4
0,     208896,     208896,     4096,    16384, 0xab0504d6
0,     212992,     212992,     4096,    16384, 0x6818a593
0,     217088,     217088,     4096,    16384, 0x172a9e58
0,     221184,     221184,     4096,    16384, 0x3d0af7a0
0,     225280,     225280,     4096,    16384, 0xa1cfee35
0,     229376,     229376,     4096,    16384, 0xcb6a24f3
0,     233472,     233472,     4096,    16384, 0x97369bae
0,     237568,     237568,     4096,    16384, 0x3457c4b4
0,     241664,     241664,     4096,    16384, 0xab0504d6
0,     245760,     245760,     4096,    16384, 0x6818a593
0,     249856,     249856,     4096,    16384, 0x172a9e58
0,     253952,     253952,     4096,    16384, 0x3d0af7a0
0,     258048,     258048,     4096,    16384, 0xa1cfee35
0,     262144,     262144,     2456,     9824, 0xc3555abe
